<svg id="Слой_1" xmlns="http://www.w3.org/2000/svg" xmlns:xlink="http://www.w3.org/1999/xlink" viewBox="0 0 39.7 16.8"><style>.st1{stroke-width:2}.st1,.st2,.st3{clip-path:url(#SVGID_2_);fill:none;stroke:#5a5959;stroke-miterlimit:10}.st3{stroke-width:2;stroke-linecap:round}</style><path fill="none" stroke="#5a5959" stroke-width="2" stroke-miterlimit="10" d="M29.2 12.7H12.5"/><defs><path id="SVGID_1_" d="M0 0h39.7v16.8H0z"/></defs><clipPath id="SVGID_2_"><use xlink:href="#SVGID_1_" overflow="visible"/></clipPath><path class="st1" d="M5.9 12.7S1 12.6 1 9.9v-4c0-.8.6-1.4 1.4-1.4h2S10.7.8 17.4 1c4.1.4 4.6.8 8.7 3.3 1.5.9 5.3 1.8 7.8 2.1 3 .3 5.2 2.6 4.7 5.6 0 .1-.1.6-.1.7h-3.2"/><path class="st1" d="M2.8 9.6h-1V6.9h1.7c.5 0 1 .4 1 1 0 .9-.8 1.7-1.7 1.7z"/><circle class="st1" cx="9.1" cy="12.7" r="3"/><circle class="st2" cx="9.1" cy="12.7" r=".8"/><circle class="st1" cx="32" cy="12.7" r="3"/><circle class="st2" cx="32" cy="12.7" r=".8"/><path class="st3" d="M7.1 3.2s1.3 3.1 3.4 3.1h22.2M9.9 9.3l1.5-7.5"/><path class="st3" d="M19.4 12.3V6l-1.6-4.6"/><path class="st1" d="M37.8 8.9a.92.92 0 1 1-1.8-.4c0-.4.5-.8 1-.7"/></svg>