<svg id="Слой_1" xmlns="http://www.w3.org/2000/svg" xmlns:xlink="http://www.w3.org/1999/xlink" viewBox="0 0 45.8 31.1"><style>.st0,.st1{clip-path:url(#SVGID_2_);fill:none;stroke:#5a5959;stroke-width:2;stroke-miterlimit:10}.st1{stroke-linecap:round}</style><defs><path id="SVGID_1_" d="M0 0h45.8v31.1H0z"/></defs><clipPath id="SVGID_2_"><use xlink:href="#SVGID_1_" overflow="visible"/></clipPath><circle class="st0" cx="6.7" cy="26.6" r="3.5"/><circle class="st0" cx="6.7" cy="26.5" r="1.1"/><circle class="st0" cx="14.1" cy="26.6" r="3.5"/><circle class="st0" cx="14.1" cy="26.5" r="1.1"/><circle class="st0" cx="37.2" cy="26.6" r="3.5"/><circle class="st0" cx="37.2" cy="26.5" r="1.1"/><path class="st0" d="M33.7 26.3H17.8M23.2 13.8h3.7v8.6h-3.7z"/><path class="st1" d="M26.8 1v21.4M21.7 6.3L25 9.6v4.1M9.2 22.4l5.6-3.1"/><path class="st1" d="M1 22.4h29.8l1.9-.9c2.9-1.4 6.3-1 8.8.9l1.7 1.2c.3.6 1.1.7 1.6.3v-3.2c0-.8-.7-1.5-1.5-1.5v-2.5l.2-.1c.8-.5 1.3-1.4 1.3-2.3V6c0-1.7-1.4-3.1-3.1-3.1H30c-1.8 0-3.3 1.5-3.3 3.3v16.3"/><path class="st0" d="M44.8 11.3h-6l-1.6-1.2H35v11M34.2 2.9v7.2M36.6 2.9v17.5M28.7 15.5h-.3V13h2.7c0 1.4-1.1 2.5-2.4 2.5zM28.1 17.4h2.8M28.1 19.4h2.8"/><path class="st1" d="M44.8 13.5h-4.1M44.8 15.2h-2.5M29 6.3h4.7M28.4 8.3h5.3"/></svg>