<?xml version="1.0" encoding="utf-8"?>
<!-- Generator: Adobe Illustrator 19.0.0, SVG Export Plug-In . SVG Version: 6.00 Build 0)  -->
<svg version="1.1" id="Слой_1" xmlns="http://www.w3.org/2000/svg" xmlns:xlink="http://www.w3.org/1999/xlink" x="0px" y="0px"
	 viewBox="0 0 52.7 25.4" style="enable-background:new 0 0 52.7 25.4;" xml:space="preserve">
<style type="text/css">
	
		.st0{clip-path:url(#SVGID_2_);fill:none;stroke:#B4B9BF;stroke-width:3;stroke-linecap:round;stroke-linejoin:round;stroke-miterlimit:10;}
</style>
<g>
	<defs>
		<rect id="SVGID_1_" y="0" width="52.7" height="25.4"/>
	</defs>
	<clipPath id="SVGID_2_">
		<use xlink:href="#SVGID_1_"  style="overflow:visible;"/>
	</clipPath>
	<line class="st0" x1="35.2" y1="19.5" x2="17.4" y2="19.5"/>
	<path class="st0" d="M8.3,19.5c0,0-0.8,0.1-1.8,0c-2-0.1-4.9-0.7-4.9-3.1c0-3.2,3.9-6.4,6.5-7c2.3-0.5,7.3-0.9,12.4-4.8
		c2.2-1.7,4.8-2.7,7.5-2.9c1-0.1,2-0.1,2.9-0.2c2.9-0.1,5.8,0.8,8.3,2.4L42.4,6c1.4,0.9,3.1,1.5,4.8,1.7l1.7,0.2
		c1.3,0.1,2.3,1.2,2.3,2.6v6c0,0-0.1,3.1-6.2,3.1"/>
	<circle class="st0" cx="13" cy="19.5" r="4.3"/>
	<circle class="st0" cx="40" cy="19.5" r="4.3"/>
	<line class="st0" x1="13" y1="8.4" x2="30.2" y2="8.4"/>
</g>
</svg>
