<?xml version="1.0" encoding="utf-8"?>
<!-- Generator: Adobe Illustrator 19.0.0, SVG Export Plug-In . SVG Version: 6.00 Build 0)  -->
<svg version="1.1" id="Слой_1" xmlns="http://www.w3.org/2000/svg" xmlns:xlink="http://www.w3.org/1999/xlink" x="0px" y="0px"
	 viewBox="0 0 47.5 24.6" style="enable-background:new 0 0 47.5 24.6;" xml:space="preserve">
<style type="text/css">
	
		.st0{clip-path:url(#SVGID_2_);fill:none;stroke:#B4B9BF;stroke-width:3;stroke-linecap:round;stroke-linejoin:round;stroke-miterlimit:10;}
	.st1{clip-path:url(#SVGID_2_);fill:none;stroke:#FF8500;stroke-width:3;stroke-linecap:round;stroke-miterlimit:10;}
	.st2{clip-path:url(#SVGID_2_);fill:#B4B9BF;}
</style>
<g>
	<defs>
		<rect id="SVGID_1_" y="0" width="47.5" height="24.6"/>
	</defs>
	<clipPath id="SVGID_2_">
		<use xlink:href="#SVGID_1_"  style="overflow:visible;"/>
	</clipPath>
	<polygon class="st0" points="46,23.1 7.5,23.1 1.5,12.3 7.5,1.5 46,1.5 	"/>
	<circle class="st1" cx="11.9" cy="12.4" r="3.3"/>
	<polygon class="st2" points="23.3,15.2 20.9,11.8 20.9,15.2 18.9,15.2 18.9,8.5 20.9,8.5 23.3,11.7 23.3,8.5 25.3,8.5 25.3,15.2 	
		"/>
	<polygon class="st2" points="26.4,15.2 26.4,8.5 31.4,8.5 31.4,10.3 28.4,10.3 28.4,10.9 31.3,10.9 31.3,12.7 28.4,12.7 28.4,13.4 
		31.4,13.4 31.4,15.2 	"/>
	<polygon class="st2" points="37.4,15.2 36.5,11.4 35.7,15.2 33.6,15.2 31.7,8.5 33.9,8.5 34.8,12.6 35.8,8.5 37.3,8.5 38.3,12.6 
		39.2,8.5 41.4,8.5 39.5,15.2 	"/>
</g>
</svg>
